<?xml version="1.0" encoding="UTF-8"?>
<svg id="Layer_1" data-name="Layer 1" xmlns="http://www.w3.org/2000/svg" xmlns:xlink="http://www.w3.org/1999/xlink" viewBox="0 0 465.84 288">
  <defs>
    <style>
      .cls-1 {
        fill: url(#linear-gradient-2);
      }

      .cls-2 {
        font-family: Inter18pt-Regular, 'Inter 18pt';
      }

      .cls-2, .cls-3 {
        fill: #151616;
        font-size: 52.45px;
      }

      .cls-4 {
        fill: url(#linear-gradient-3);
      }

      .cls-3 {
        font-family: Inter18pt-Medium, 'Inter 18pt';
        font-weight: 500;
      }

      .cls-5 {
        fill: url(#linear-gradient);
      }
    </style>
    <linearGradient id="linear-gradient" x1="48.94" y1="160.99" x2="136.6" y2="160.99" gradientUnits="userSpaceOnUse">
      <stop offset="0" stop-color="#10adda"/>
      <stop offset="1" stop-color="#3488f2"/>
    </linearGradient>
    <linearGradient id="linear-gradient-2" x1="64.49" y1="148.74" x2="163.92" y2="148.74" xlink:href="#linear-gradient"/>
    <linearGradient id="linear-gradient-3" x1="47.87" y1="167.54" x2="112.43" y2="167.54" xlink:href="#linear-gradient"/>
  </defs>
  <g>
    <path class="cls-5" d="M99.18,198.71c9-14.52,18.19-30.34,18.08-47.47-.03-5.14-2.61-9.04-6.96-11.5-4.55-2.1-9.15-3.64-14.19-4.86-15.7-3.31-31.11-3.34-47.17-2.03,17.62-6.27,35.99-9.68,54.67-9.56,12.18.08,34.73,3.63,32.89,20.07-1.78,15.94-15.48,35.9-26.61,47.27-3.23,3.3-6.69,5.97-10.71,8.09Z"/>
    <path class="cls-1" d="M121.47,191.51c10.21-16.47,20.63-34.41,20.51-53.84-.04-5.83-2.96-10.25-7.9-13.05-5.16-2.38-10.38-4.13-16.09-5.51-17.81-3.76-35.29-3.79-53.5-2.31,19.98-7.12,40.81-10.98,62-10.85,13.81.09,39.39,4.12,37.31,22.76-2.02,18.08-17.56,40.72-30.18,53.61-3.66,3.74-7.59,6.77-12.15,9.17Z"/>
    <path class="cls-4" d="M80.97,148.94c-11.3-1.56-21.89-.96-33.11.2,14.36-6.27,29.6-7.99,44.83-8.35,4.67-.11,9.25.71,13.54,2.14,20.46,6.83-15.63,45.5-23.65,51.37,4.38-7.27,23.32-36.69,9.52-42.19-3.58-1.3-7.07-2.28-11.14-3.17Z"/>
  </g>
  <g>
    <text class="cls-3" transform="translate(174.66 144.66)"><tspan x="0" y="0">UNICORN</tspan></text>
    <text class="cls-2" transform="translate(174.65 198.71)"><tspan x="0" y="0">STUDIO</tspan></text>
  </g>
</svg>