<svg xmlns="http://www.w3.org/2000/svg" width="5450" height="786" fill="none"><path fill="#1D2558" d="M25 228c0-41.421 33.579-75 75-75h78v475h-78c-41.421 0-75-33.579-75-75V228z"/><path fill="#1D2558" d="M25 452h475v101c0 41.421-33.579 75-75 75H100c-41.421 0-75-33.579-75-75V452z"/><path fill="#4F54FF" d="M178 153h153v475H178z"/><path fill="#4F54FF" d="M178 153h322v67c0 41.421-33.579 75-75 75H178V153zm0 157h247c41.421 0 75 33.579 75 75v67H178V310z"/><path fill="#F5F5F5" d="m298 303 40.5-23.383v46.766L298 303z"/><path fill="#1D2558" d="M676.62 624V172.575h83.836v380.487h236.031V624H676.62zm450.54-263.761h224.43v69.003h-224.43v-69.003zm6.45 193.468h254.73V624h-338.56V172.575h329.54v70.293h-245.71v310.839zM1596.1 624l-197.34-451.425h90.93l176.06 408.217h-52.24l177.99-408.217h83.84L1678.65 624h-82.55zm391.37-263.761h224.42v69.003h-224.42v-69.003zm6.44 193.468h254.74V624h-338.57V172.575h329.54v70.293h-245.71v310.839zM2329.21 624V172.575h185.73c39.98 0 74.16 6.449 102.54 19.347 28.8 12.898 50.94 31.384 66.42 55.46 15.48 24.077 23.22 52.667 23.22 85.771 0 33.105-7.74 61.695-23.22 85.771-15.48 23.646-37.62 41.918-66.42 54.816-28.38 12.468-62.56 18.702-102.54 18.702h-139.3l37.4-38.049V624h-83.83zm295.36 0-114.15-163.803h89.64L2714.85 624h-90.28zm-211.53-160.578-37.4-39.984h135.43c36.97 0 64.7-7.953 83.19-23.861 18.92-15.907 28.37-38.048 28.37-66.424 0-28.805-9.45-50.946-28.37-66.424-18.49-15.477-46.22-23.216-83.19-23.216h-135.43l37.4-41.273v261.182zM2724.17 624l203.14-451.425h82.55L3213.64 624h-87.7l-174.77-406.927h33.54L2810.59 624h-86.42zm93.51-104.473 22.57-65.779h243.77l22.57 65.779h-288.91zm645.06 110.922c-35.26 0-67.71-5.589-97.38-16.767-29.24-11.608-54.82-27.731-76.74-48.367-21.93-21.067-38.91-45.788-50.95-74.163-12.04-28.375-18.06-59.33-18.06-92.865 0-33.534 6.02-64.489 18.06-92.864s29.02-52.881 50.95-73.518c22.35-21.066 48.36-37.189 78.03-48.367 29.66-11.608 62.12-17.412 97.38-17.412 38.26 0 72.66 6.234 103.18 18.702 30.96 12.468 56.97 30.74 78.03 54.816l-52.88 51.591c-17.62-17.627-36.76-30.525-57.39-38.693-20.21-8.599-42.57-12.898-67.07-12.898-23.65 0-45.57 3.869-65.78 11.608-20.21 7.739-37.62 18.702-52.24 32.889-14.61 14.188-26.01 30.955-34.18 50.302-7.74 19.347-11.6 40.628-11.6 63.844 0 22.787 3.86 43.853 11.6 63.2 8.17 19.347 19.57 36.329 34.18 50.947 14.62 14.187 31.82 25.15 51.59 32.889 19.78 7.739 41.71 11.608 65.78 11.608 22.36 0 43.86-3.439 64.49-10.318 21.07-7.309 41.06-19.347 59.98-36.114l47.72 62.554c-23.65 18.917-51.16 33.32-82.55 43.208-30.95 9.459-62.34 14.188-94.15 14.188zm97.38-68.359V393.128h79.32v179.925l-79.32-10.963zm254.38-201.851h224.43v69.003H3814.5v-69.003zm6.45 193.468h254.73V624h-338.56V172.575h329.54v70.293h-245.71v310.839z"/><path fill="#4F54FF" d="M4274.26 364.753h198.63v114.791h-198.63V364.753zM4284.58 624h-152.2V172.575h366.95v114.791h-214.75V624zm262.83 0V172.575h152.19v333.41h203.79V624h-355.98zm628.4 10.318c-36.55 0-70.51-5.804-101.9-17.412-30.95-11.608-57.82-27.945-80.61-49.012-22.78-21.496-40.63-46.647-53.52-75.452-12.47-28.805-18.71-60.19-18.71-94.155 0-34.394 6.24-65.779 18.71-94.154 12.89-28.805 30.74-53.741 53.52-74.808 22.79-21.496 49.66-38.048 80.61-49.656 31.39-11.608 65.35-17.412 101.9-17.412 36.97 0 70.93 5.804 101.89 17.412 30.95 11.608 57.82 28.16 80.61 49.656 22.79 21.067 40.41 46.003 52.88 74.808 12.9 28.375 19.35 59.76 19.35 94.154 0 33.965-6.45 65.35-19.35 94.155-12.47 28.805-30.09 53.956-52.88 75.452-22.79 21.067-49.66 37.404-80.61 49.012-30.96 11.608-64.92 17.412-101.89 17.412zm0-123.174c14.18 0 27.3-2.58 39.33-7.739 12.47-5.159 23.22-12.468 32.25-21.926 9.46-9.889 16.77-21.712 21.93-35.469 5.15-14.188 7.73-30.095 7.73-47.723 0-17.627-2.58-33.319-7.73-47.077-5.16-14.187-12.47-26.01-21.93-35.469-9.03-9.888-19.78-17.412-32.25-22.571-12.03-5.159-25.15-7.739-39.33-7.739-14.19 0-27.52 2.58-39.99 7.739-12.04 5.159-22.78 12.683-32.24 22.571-9.03 9.459-16.12 21.282-21.28 35.469-5.16 13.758-7.74 29.45-7.74 47.077 0 17.628 2.58 33.535 7.74 47.723 5.16 13.757 12.25 25.58 21.28 35.469 9.46 9.458 20.2 16.767 32.24 21.926 12.47 5.159 25.8 7.739 39.99 7.739z"/></svg>